<svg xmlns="http://www.w3.org/2000/svg" version="1.1" xmlns:xlink="http://www.w3.org/1999/xlink" xmlns:svgjs="http://svgjs.com/svgjs" width="1800" height="750" preserveAspectRatio="none" viewBox="0 0 1800 750"><g mask="url(&quot;#SvgjsMask1034&quot;)" fill="none"><rect width="1800" height="750" x="0" y="0" fill="rgba(4, 13, 23, 1)"></rect><path d="M1760 520L1759 1082" stroke-width="6" stroke="url(#SvgjsLinearGradient1035)" stroke-linecap="round" class="Down"></path><path d="M1020 47L1019 292" stroke-width="8" stroke="url(#SvgjsLinearGradient1036)" stroke-linecap="round" class="Up"></path><path d="M1381 105L1380 331" stroke-width="6" stroke="url(#SvgjsLinearGradient1036)" stroke-linecap="round" class="Up"></path><path d="M1524 225L1523 2" stroke-width="6" stroke="url(#SvgjsLinearGradient1036)" stroke-linecap="round" class="Up"></path><path d="M1366 315L1365 -93" stroke-width="10" stroke="url(#SvgjsLinearGradient1035)" stroke-linecap="round" class="Down"></path><path d="M342 182L341 712" stroke-width="10" stroke="url(#SvgjsLinearGradient1035)" stroke-linecap="round" class="Down"></path><path d="M143 685L142 1108" stroke-width="10" stroke="url(#SvgjsLinearGradient1036)" stroke-linecap="round" class="Up"></path><path d="M471 98L470 611" stroke-width="6" stroke="url(#SvgjsLinearGradient1035)" stroke-linecap="round" class="Down"></path><path d="M327 29L326 451" stroke-width="6" stroke="url(#SvgjsLinearGradient1035)" stroke-linecap="round" class="Down"></path><path d="M555 260L554 680" stroke-width="8" stroke="url(#SvgjsLinearGradient1035)" stroke-linecap="round" class="Down"></path><path d="M290 156L289 -212" stroke-width="8" stroke="url(#SvgjsLinearGradient1036)" stroke-linecap="round" class="Up"></path><path d="M1206 748L1205 542" stroke-width="10" stroke="url(#SvgjsLinearGradient1036)" stroke-linecap="round" class="Up"></path><path d="M150 41L149 371" stroke-width="8" stroke="url(#SvgjsLinearGradient1036)" stroke-linecap="round" class="Up"></path><path d="M716 205L715 502" stroke-width="6" stroke="url(#SvgjsLinearGradient1036)" stroke-linecap="round" class="Up"></path><path d="M834 640L833 412" stroke-width="10" stroke="url(#SvgjsLinearGradient1036)" stroke-linecap="round" class="Up"></path><path d="M1098 29L1097 369" stroke-width="6" stroke="url(#SvgjsLinearGradient1035)" stroke-linecap="round" class="Down"></path><path d="M1390 45L1389 334" stroke-width="6" stroke="url(#SvgjsLinearGradient1036)" stroke-linecap="round" class="Up"></path><path d="M879 672L878 1035" stroke-width="6" stroke="url(#SvgjsLinearGradient1036)" stroke-linecap="round" class="Up"></path><path d="M156 322L155 129" stroke-width="10" stroke="url(#SvgjsLinearGradient1036)" stroke-linecap="round" class="Up"></path><path d="M983 710L982 1040" stroke-width="10" stroke="url(#SvgjsLinearGradient1035)" stroke-linecap="round" class="Down"></path><path d="M1258 157L1257 378" stroke-width="10" stroke="url(#SvgjsLinearGradient1036)" stroke-linecap="round" class="Up"></path><path d="M1385 306L1384 -242" stroke-width="8" stroke="url(#SvgjsLinearGradient1035)" stroke-linecap="round" class="Down"></path><path d="M287 191L286 671" stroke-width="10" stroke="url(#SvgjsLinearGradient1035)" stroke-linecap="round" class="Down"></path><path d="M373 368L372 136" stroke-width="8" stroke="url(#SvgjsLinearGradient1035)" stroke-linecap="round" class="Down"></path><path d="M1614 247L1613 638" stroke-width="8" stroke="url(#SvgjsLinearGradient1035)" stroke-linecap="round" class="Down"></path><path d="M1560 195L1559 -121" stroke-width="8" stroke="url(#SvgjsLinearGradient1036)" stroke-linecap="round" class="Up"></path><path d="M471 247L470 723" stroke-width="6" stroke="url(#SvgjsLinearGradient1035)" stroke-linecap="round" class="Down"></path><path d="M508 418L507 -87" stroke-width="8" stroke="url(#SvgjsLinearGradient1035)" stroke-linecap="round" class="Down"></path><path d="M1383 220L1382 771" stroke-width="6" stroke="url(#SvgjsLinearGradient1035)" stroke-linecap="round" class="Down"></path><path d="M635 279L634 676" stroke-width="10" stroke="url(#SvgjsLinearGradient1035)" stroke-linecap="round" class="Down"></path><path d="M450 476L449 990" stroke-width="8" stroke="url(#SvgjsLinearGradient1035)" stroke-linecap="round" class="Down"></path><path d="M421 750L420 268" stroke-width="8" stroke="url(#SvgjsLinearGradient1035)" stroke-linecap="round" class="Down"></path><path d="M1165 697L1164 274" stroke-width="10" stroke="url(#SvgjsLinearGradient1035)" stroke-linecap="round" class="Down"></path><path d="M409 678L408 1110" stroke-width="8" stroke="url(#SvgjsLinearGradient1036)" stroke-linecap="round" class="Up"></path><path d="M1230 242L1229 -202" stroke-width="10" stroke="url(#SvgjsLinearGradient1036)" stroke-linecap="round" class="Up"></path><path d="M429 616L428 1113" stroke-width="6" stroke="url(#SvgjsLinearGradient1035)" stroke-linecap="round" class="Down"></path><path d="M179 210L178 489" stroke-width="8" stroke="url(#SvgjsLinearGradient1035)" stroke-linecap="round" class="Down"></path><path d="M1104 134L1103 -156" stroke-width="6" stroke="url(#SvgjsLinearGradient1036)" stroke-linecap="round" class="Up"></path><path d="M156 352L155 80" stroke-width="10" stroke="url(#SvgjsLinearGradient1036)" stroke-linecap="round" class="Up"></path><path d="M1603 603L1602 403" stroke-width="8" stroke="url(#SvgjsLinearGradient1036)" stroke-linecap="round" class="Up"></path><path d="M709 726L708 1023" stroke-width="6" stroke="url(#SvgjsLinearGradient1035)" stroke-linecap="round" class="Down"></path><path d="M555 532L554 778" stroke-width="10" stroke="url(#SvgjsLinearGradient1035)" stroke-linecap="round" class="Down"></path><path d="M242 114L241 -75" stroke-width="10" stroke="url(#SvgjsLinearGradient1036)" stroke-linecap="round" class="Up"></path><path d="M983 314L982 569" stroke-width="8" stroke="url(#SvgjsLinearGradient1035)" stroke-linecap="round" class="Down"></path><path d="M1303 536L1302 11" stroke-width="10" stroke="url(#SvgjsLinearGradient1035)" stroke-linecap="round" class="Down"></path></g><defs><mask id="SvgjsMask1034"><rect width="1800" height="750" fill="#ffffff"></rect></mask><linearGradient x1="0%" y1="0%" x2="0%" y2="100%" id="SvgjsLinearGradient1035"><stop stop-color="rgba(22, 23, 31, 0)" offset="0"></stop><stop stop-color="rgba(22, 23, 31, 1)" offset="1"></stop></linearGradient><linearGradient x1="0%" y1="100%" x2="0%" y2="0%" id="SvgjsLinearGradient1036"><stop stop-color="rgba(22, 23, 31, 0)" offset="0"></stop><stop stop-color="rgba(22, 23, 31, 1)" offset="1"></stop></linearGradient></defs></svg>